<svg width="227" height="53" viewBox="0 0 227 53" fill="none" xmlns="http://www.w3.org/2000/svg">
<path d="M72.2392 34.8766C70.6192 34.8766 69.1092 34.6166 67.7092 34.0966C66.3292 33.5566 65.1292 32.7966 64.1092 31.8166C63.0892 30.8366 62.2892 29.6866 61.7092 28.3666C61.1492 27.0466 60.8692 25.5966 60.8692 24.0166C60.8692 22.4366 61.1492 20.9866 61.7092 19.6666C62.2892 18.3466 63.0892 17.1966 64.1092 16.2166C65.1492 15.2366 66.3592 14.4866 67.7392 13.9666C69.1192 13.4266 70.6292 13.1566 72.2692 13.1566C74.0892 13.1566 75.7292 13.4766 77.1892 14.1166C78.6692 14.7366 79.9092 15.6566 80.9092 16.8766L77.7892 19.7566C77.0692 18.9366 76.2692 18.3266 75.3892 17.9266C74.5092 17.5066 73.5492 17.2966 72.5092 17.2966C71.5292 17.2966 70.6292 17.4566 69.8092 17.7766C68.9892 18.0966 68.2792 18.5566 67.6792 19.1566C67.0792 19.7566 66.6092 20.4666 66.2692 21.2866C65.9492 22.1066 65.7892 23.0166 65.7892 24.0166C65.7892 25.0166 65.9492 25.9266 66.2692 26.7466C66.6092 27.5666 67.0792 28.2766 67.6792 28.8766C68.2792 29.4766 68.9892 29.9366 69.8092 30.2566C70.6292 30.5766 71.5292 30.7366 72.5092 30.7366C73.5492 30.7366 74.5092 30.5366 75.3892 30.1366C76.2692 29.7166 77.0692 29.0866 77.7892 28.2466L80.9092 31.1266C79.9092 32.3466 78.6692 33.2766 77.1892 33.9166C75.7292 34.5566 74.0792 34.8766 72.2392 34.8766ZM85.9012 40.5766C85.0612 40.5766 84.2312 40.4466 83.4112 40.1866C82.5912 39.9266 81.9212 39.5666 81.4012 39.1066L83.1112 35.7766C83.4712 36.0966 83.8812 36.3466 84.3412 36.5266C84.8212 36.7066 85.2912 36.7966 85.7512 36.7966C86.4112 36.7966 86.9312 36.6366 87.3112 36.3166C87.7112 36.0166 88.0712 35.5066 88.3912 34.7866L89.2312 32.8066L89.5912 32.2966L95.3812 18.3766H99.8812L92.5912 35.5066C92.0712 36.8066 91.4712 37.8266 90.7912 38.5666C90.1312 39.3066 89.3912 39.8266 88.5712 40.1266C87.7712 40.4266 86.8812 40.5766 85.9012 40.5766ZM88.6612 35.1466L81.4612 18.3766H86.2912L91.8712 31.8766L88.6612 35.1466ZM111.331 34.7566C109.911 34.7566 108.691 34.4566 107.671 33.8566C106.651 33.2566 105.871 32.3466 105.331 31.1266C104.791 29.8866 104.521 28.3266 104.521 26.4466C104.521 24.5466 104.801 22.9866 105.361 21.7666C105.941 20.5466 106.741 19.6366 107.761 19.0366C108.781 18.4366 109.971 18.1366 111.331 18.1366C112.851 18.1366 114.211 18.4766 115.411 19.1566C116.631 19.8366 117.591 20.7966 118.291 22.0366C119.011 23.2766 119.371 24.7466 119.371 26.4466C119.371 28.1266 119.011 29.5866 118.291 30.8266C117.591 32.0666 116.631 33.0366 115.411 33.7366C114.211 34.4166 112.851 34.7566 111.331 34.7566ZM101.791 34.5166V12.2566H106.471V21.6466L106.171 26.4166L106.261 31.2166V34.5166H101.791ZM110.521 30.9166C111.301 30.9166 111.991 30.7366 112.591 30.3766C113.211 30.0166 113.701 29.5066 114.061 28.8466C114.441 28.1666 114.631 27.3666 114.631 26.4466C114.631 25.5066 114.441 24.7066 114.061 24.0466C113.701 23.3866 113.211 22.8766 112.591 22.5166C111.991 22.1566 111.301 21.9766 110.521 21.9766C109.741 21.9766 109.041 22.1566 108.421 22.5166C107.801 22.8766 107.311 23.3866 106.951 24.0466C106.591 24.7066 106.411 25.5066 106.411 26.4466C106.411 27.3666 106.591 28.1666 106.951 28.8466C107.311 29.5066 107.801 30.0166 108.421 30.3766C109.041 30.7366 109.741 30.9166 110.521 30.9166ZM130.514 34.7566C128.674 34.7566 127.054 34.3966 125.654 33.6766C124.274 32.9566 123.204 31.9766 122.444 30.7366C121.684 29.4766 121.304 28.0466 121.304 26.4466C121.304 24.8266 121.674 23.3966 122.414 22.1566C123.174 20.8966 124.204 19.9166 125.504 19.2166C126.804 18.4966 128.274 18.1366 129.914 18.1366C131.494 18.1366 132.914 18.4766 134.174 19.1566C135.454 19.8166 136.464 20.7766 137.204 22.0366C137.944 23.2766 138.314 24.7666 138.314 26.5066C138.314 26.6866 138.304 26.8966 138.284 27.1366C138.264 27.3566 138.244 27.5666 138.224 27.7666H125.114V25.0366H135.764L133.964 25.8466C133.964 25.0066 133.794 24.2766 133.454 23.6566C133.114 23.0366 132.644 22.5566 132.044 22.2166C131.444 21.8566 130.744 21.6766 129.944 21.6766C129.144 21.6766 128.434 21.8566 127.814 22.2166C127.214 22.5566 126.744 23.0466 126.404 23.6866C126.064 24.3066 125.894 25.0466 125.894 25.9066V26.6266C125.894 27.5066 126.084 28.2866 126.464 28.9666C126.864 29.6266 127.414 30.1366 128.114 30.4966C128.834 30.8366 129.674 31.0066 130.634 31.0066C131.494 31.0066 132.244 30.8766 132.884 30.6166C133.544 30.3566 134.144 29.9666 134.684 29.4466L137.174 32.1466C136.434 32.9866 135.504 33.6366 134.384 34.0966C133.264 34.5366 131.974 34.7566 130.514 34.7566ZM141.43 34.5166V18.3766H145.9V22.9366L145.27 21.6166C145.75 20.4766 146.52 19.6166 147.58 19.0366C148.64 18.4366 149.93 18.1366 151.45 18.1366V22.4566C151.25 22.4366 151.07 22.4266 150.91 22.4266C150.75 22.4066 150.58 22.3966 150.4 22.3966C149.12 22.3966 148.08 22.7666 147.28 23.5066C146.5 24.2266 146.11 25.3566 146.11 26.8966V34.5166H141.43ZM161.915 34.7566C160.175 34.7566 158.625 34.4066 157.265 33.7066C155.905 32.9866 154.835 31.9966 154.055 30.7366C153.295 29.4766 152.915 28.0466 152.915 26.4466C152.915 24.8266 153.295 23.3966 154.055 22.1566C154.835 20.8966 155.905 19.9166 157.265 19.2166C158.625 18.4966 160.175 18.1366 161.915 18.1366C163.615 18.1366 165.095 18.4966 166.355 19.2166C167.615 19.9166 168.545 20.9266 169.145 22.2466L165.515 24.1966C165.095 23.4366 164.565 22.8766 163.925 22.5166C163.305 22.1566 162.625 21.9766 161.885 21.9766C161.085 21.9766 160.365 22.1566 159.725 22.5166C159.085 22.8766 158.575 23.3866 158.195 24.0466C157.835 24.7066 157.655 25.5066 157.655 26.4466C157.655 27.3866 157.835 28.1866 158.195 28.8466C158.575 29.5066 159.085 30.0166 159.725 30.3766C160.365 30.7366 161.085 30.9166 161.885 30.9166C162.625 30.9166 163.305 30.7466 163.925 30.4066C164.565 30.0466 165.095 29.4766 165.515 28.6966L169.145 30.6766C168.545 31.9766 167.615 32.9866 166.355 33.7066C165.095 34.4066 163.615 34.7566 161.915 34.7566ZM171.752 34.5166V12.2566H176.432V34.5166H171.752ZM180.775 34.5166V18.3766H185.455V34.5166H180.775ZM183.115 16.1266C182.255 16.1266 181.555 15.8766 181.015 15.3766C180.475 14.8766 180.205 14.2566 180.205 13.5166C180.205 12.7766 180.475 12.1566 181.015 11.6566C181.555 11.1566 182.255 10.9066 183.115 10.9066C183.975 10.9066 184.675 11.1466 185.215 11.6266C185.755 12.0866 186.025 12.6866 186.025 13.4266C186.025 14.2066 185.755 14.8566 185.215 15.3766C184.695 15.8766 183.995 16.1266 183.115 16.1266ZM197.599 34.7566C195.859 34.7566 194.309 34.4066 192.949 33.7066C191.589 32.9866 190.519 31.9966 189.739 30.7366C188.979 29.4766 188.599 28.0466 188.599 26.4466C188.599 24.8266 188.979 23.3966 189.739 22.1566C190.519 20.8966 191.589 19.9166 192.949 19.2166C194.309 18.4966 195.859 18.1366 197.599 18.1366C199.299 18.1366 200.779 18.4966 202.039 19.2166C203.299 19.9166 204.229 20.9266 204.829 22.2466L201.199 24.1966C200.779 23.4366 200.249 22.8766 199.609 22.5166C198.989 22.1566 198.309 21.9766 197.569 21.9766C196.769 21.9766 196.049 22.1566 195.409 22.5166C194.769 22.8766 194.259 23.3866 193.879 24.0466C193.519 24.7066 193.339 25.5066 193.339 26.4466C193.339 27.3866 193.519 28.1866 193.879 28.8466C194.259 29.5066 194.769 30.0166 195.409 30.3766C196.049 30.7366 196.769 30.9166 197.569 30.9166C198.309 30.9166 198.989 30.7466 199.609 30.4066C200.249 30.0466 200.779 29.4766 201.199 28.6966L204.829 30.6766C204.229 31.9766 203.299 32.9866 202.039 33.7066C200.779 34.4066 199.299 34.7566 197.599 34.7566ZM211.305 31.2166L211.425 25.5166L218.955 18.3766H224.535L217.305 25.7266L214.875 27.7066L211.305 31.2166ZM207.435 34.5166V12.2566H212.115V34.5166H207.435ZM219.465 34.5166L214.005 27.7366L216.945 24.1066L225.135 34.5166H219.465Z" fill="white"/>
<circle cx="25.8455" cy="26.4134" r="25.8455" fill="#88888E"/>
<circle cx="25.8455" cy="25.8455" r="25.8455" fill="#88888E"/>
<circle cx="26.1302" cy="26.6971" r="18.177" fill="#C5C5C8"/>
<circle cx="25.8449" cy="26.4132" r="6.53238" fill="white"/>
</svg>
