<svg width="187" height="164" viewBox="0 0 187 164" fill="none" xmlns="http://www.w3.org/2000/svg">
<path d="M38.36 91.32V119H34.72V98.36L25.52 119H22.96L13.72 98.32V119H10.08V91.32H14L24.24 114.2L34.48 91.32H38.36ZM43.1731 107.96C43.1731 105.72 43.6265 103.76 44.5331 102.08C45.4398 100.373 46.6798 99.0533 48.2531 98.12C49.8531 97.1867 51.6265 96.72 53.5731 96.72C55.4931 96.72 57.1598 97.1333 58.5731 97.96C59.9865 98.7867 61.0398 99.8267 61.7331 101.08V97.08H65.4131V119H61.7331V114.92C61.0131 116.2 59.9331 117.267 58.4931 118.12C57.0798 118.947 55.4265 119.36 53.5331 119.36C51.5865 119.36 49.8265 118.88 48.2531 117.92C46.6798 116.96 45.4398 115.613 44.5331 113.88C43.6265 112.147 43.1731 110.173 43.1731 107.96ZM61.7331 108C61.7331 106.347 61.3998 104.907 60.7331 103.68C60.0665 102.453 59.1598 101.52 58.0131 100.88C56.8931 100.213 55.6531 99.88 54.2931 99.88C52.9331 99.88 51.6931 100.2 50.5731 100.84C49.4531 101.48 48.5598 102.413 47.8931 103.64C47.2265 104.867 46.8931 106.307 46.8931 107.96C46.8931 109.64 47.2265 111.107 47.8931 112.36C48.5598 113.587 49.4531 114.533 50.5731 115.2C51.6931 115.84 52.9331 116.16 54.2931 116.16C55.6531 116.16 56.8931 115.84 58.0131 115.2C59.1598 114.533 60.0665 113.587 60.7331 112.36C61.3998 111.107 61.7331 109.653 61.7331 108ZM75.2044 100.64C75.8444 99.3867 76.751 98.4133 77.9244 97.72C79.1244 97.0267 80.5777 96.68 82.2844 96.68V100.44H81.3244C77.2444 100.44 75.2044 102.653 75.2044 107.08V119H71.5644V97.08H75.2044V100.64ZM85.1263 108C85.1263 105.733 85.5796 103.76 86.4863 102.08C87.3929 100.373 88.6463 99.0533 90.2463 98.12C91.8729 97.1867 93.7263 96.72 95.8063 96.72C98.4996 96.72 100.713 97.3733 102.446 98.68C104.206 99.9867 105.366 101.8 105.926 104.12H102.006C101.633 102.787 100.9 101.733 99.8063 100.96C98.7396 100.187 97.4063 99.8 95.8063 99.8C93.7263 99.8 92.0463 100.52 90.7663 101.96C89.4863 103.373 88.8463 105.387 88.8463 108C88.8463 110.64 89.4863 112.68 90.7663 114.12C92.0463 115.56 93.7263 116.28 95.8063 116.28C97.4063 116.28 98.7396 115.907 99.8063 115.16C100.873 114.413 101.606 113.347 102.006 111.96H105.926C105.34 114.2 104.166 116 102.406 117.36C100.646 118.693 98.4463 119.36 95.8063 119.36C93.7263 119.36 91.8729 118.893 90.2463 117.96C88.6463 117.027 87.3929 115.707 86.4863 114C85.5796 112.293 85.1263 110.293 85.1263 108ZM120.343 119.36C118.29 119.36 116.423 118.893 114.743 117.96C113.09 117.027 111.783 115.707 110.823 114C109.89 112.267 109.423 110.267 109.423 108C109.423 105.76 109.903 103.787 110.863 102.08C111.85 100.347 113.183 99.0267 114.863 98.12C116.543 97.1867 118.423 96.72 120.503 96.72C122.583 96.72 124.463 97.1867 126.143 98.12C127.823 99.0267 129.143 100.333 130.103 102.04C131.09 103.747 131.583 105.733 131.583 108C131.583 110.267 131.076 112.267 130.063 114C129.076 115.707 127.73 117.027 126.023 117.96C124.316 118.893 122.423 119.36 120.343 119.36ZM120.343 116.16C121.65 116.16 122.876 115.853 124.023 115.24C125.17 114.627 126.09 113.707 126.783 112.48C127.503 111.253 127.863 109.76 127.863 108C127.863 106.24 127.516 104.747 126.823 103.52C126.13 102.293 125.223 101.387 124.103 100.8C122.983 100.187 121.77 99.88 120.463 99.88C119.13 99.88 117.903 100.187 116.783 100.8C115.69 101.387 114.81 102.293 114.143 103.52C113.476 104.747 113.143 106.24 113.143 108C113.143 109.787 113.463 111.293 114.103 112.52C114.77 113.747 115.65 114.667 116.743 115.28C117.836 115.867 119.036 116.16 120.343 116.16ZM144.129 119.36C142.449 119.36 140.942 119.08 139.609 118.52C138.276 117.933 137.222 117.133 136.449 116.12C135.676 115.08 135.249 113.893 135.169 112.56H138.929C139.036 113.653 139.542 114.547 140.449 115.24C141.382 115.933 142.596 116.28 144.089 116.28C145.476 116.28 146.569 115.973 147.369 115.36C148.169 114.747 148.569 113.973 148.569 113.04C148.569 112.08 148.142 111.373 147.289 110.92C146.436 110.44 145.116 109.973 143.329 109.52C141.702 109.093 140.369 108.667 139.329 108.24C138.316 107.787 137.436 107.133 136.689 106.28C135.969 105.4 135.609 104.253 135.609 102.84C135.609 101.72 135.942 100.693 136.609 99.76C137.276 98.8267 138.222 98.0933 139.449 97.56C140.676 97 142.076 96.72 143.649 96.72C146.076 96.72 148.036 97.3333 149.529 98.56C151.022 99.7867 151.822 101.467 151.929 103.6H148.289C148.209 102.453 147.742 101.533 146.889 100.84C146.062 100.147 144.942 99.8 143.529 99.8C142.222 99.8 141.182 100.08 140.409 100.64C139.636 101.2 139.249 101.933 139.249 102.84C139.249 103.56 139.476 104.16 139.929 104.64C140.409 105.093 140.996 105.467 141.689 105.76C142.409 106.027 143.396 106.333 144.649 106.68C146.222 107.107 147.502 107.533 148.489 107.96C149.476 108.36 150.316 108.973 151.009 109.8C151.729 110.627 152.102 111.707 152.129 113.04C152.129 114.24 151.796 115.32 151.129 116.28C150.462 117.24 149.516 118 148.289 118.56C147.089 119.093 145.702 119.36 144.129 119.36ZM13.72 156.04H23.48V159H10.08V131.12H13.72V156.04ZM25.9856 147.96C25.9856 145.72 26.439 143.76 27.3456 142.08C28.2523 140.373 29.4923 139.053 31.0656 138.12C32.6656 137.187 34.439 136.72 36.3856 136.72C38.3056 136.72 39.9723 137.133 41.3856 137.96C42.799 138.787 43.8523 139.827 44.5456 141.08V137.08H48.2256V159H44.5456V154.92C43.8256 156.2 42.7456 157.267 41.3056 158.12C39.8923 158.947 38.239 159.36 36.3456 159.36C34.399 159.36 32.639 158.88 31.0656 157.92C29.4923 156.96 28.2523 155.613 27.3456 153.88C26.439 152.147 25.9856 150.173 25.9856 147.96ZM44.5456 148C44.5456 146.347 44.2123 144.907 43.5456 143.68C42.879 142.453 41.9723 141.52 40.8256 140.88C39.7056 140.213 38.4656 139.88 37.1056 139.88C35.7456 139.88 34.5056 140.2 33.3856 140.84C32.2656 141.48 31.3723 142.413 30.7056 143.64C30.039 144.867 29.7056 146.307 29.7056 147.96C29.7056 149.64 30.039 151.107 30.7056 152.36C31.3723 153.587 32.2656 154.533 33.3856 155.2C34.5056 155.84 35.7456 156.16 37.1056 156.16C38.4656 156.16 39.7056 155.84 40.8256 155.2C41.9723 154.533 42.879 153.587 43.5456 152.36C44.2123 151.107 44.5456 149.653 44.5456 148ZM62.5369 155.64L69.3369 137.08H73.2169L64.6169 159H60.3769L51.7769 137.08H55.6969L62.5369 155.64ZM75.4388 147.96C75.4388 145.72 75.8921 143.76 76.7988 142.08C77.7054 140.373 78.9454 139.053 80.5188 138.12C82.1188 137.187 83.8921 136.72 85.8388 136.72C87.7588 136.72 89.4254 137.133 90.8388 137.96C92.2521 138.787 93.3054 139.827 93.9988 141.08V137.08H97.6788V159H93.9988V154.92C93.2788 156.2 92.1988 157.267 90.7588 158.12C89.3454 158.947 87.6921 159.36 85.7988 159.36C83.8521 159.36 82.0921 158.88 80.5188 157.92C78.9454 156.96 77.7054 155.613 76.7988 153.88C75.8921 152.147 75.4388 150.173 75.4388 147.96ZM93.9988 148C93.9988 146.347 93.6654 144.907 92.9988 143.68C92.3321 142.453 91.4254 141.52 90.2788 140.88C89.1588 140.213 87.9188 139.88 86.5588 139.88C85.1988 139.88 83.9588 140.2 82.8388 140.84C81.7188 141.48 80.8254 142.413 80.1588 143.64C79.4921 144.867 79.1588 146.307 79.1588 147.96C79.1588 149.64 79.4921 151.107 80.1588 152.36C80.8254 153.587 81.7188 154.533 82.8388 155.2C83.9588 155.84 85.1988 156.16 86.5588 156.16C87.9188 156.16 89.1588 155.84 90.2788 155.2C91.4254 154.533 92.3321 153.587 92.9988 152.36C93.6654 151.107 93.9988 149.653 93.9988 148ZM107.47 140.64C108.11 139.387 109.017 138.413 110.19 137.72C111.39 137.027 112.843 136.68 114.55 136.68V140.44H113.59C109.51 140.44 107.47 142.653 107.47 147.08V159H103.83V137.08H107.47V140.64ZM138.752 147.2C138.752 147.893 138.712 148.627 138.632 149.4H121.112C121.245 151.56 121.979 153.253 123.312 154.48C124.672 155.68 126.312 156.28 128.232 156.28C129.805 156.28 131.112 155.92 132.152 155.2C133.219 154.453 133.965 153.467 134.392 152.24H138.312C137.725 154.347 136.552 156.067 134.792 157.4C133.032 158.707 130.845 159.36 128.232 159.36C126.152 159.36 124.285 158.893 122.632 157.96C121.005 157.027 119.725 155.707 118.792 154C117.859 152.267 117.392 150.267 117.392 148C117.392 145.733 117.845 143.747 118.752 142.04C119.659 140.333 120.925 139.027 122.552 138.12C124.205 137.187 126.099 136.72 128.232 136.72C130.312 136.72 132.152 137.173 133.752 138.08C135.352 138.987 136.579 140.24 137.432 141.84C138.312 143.413 138.752 145.2 138.752 147.2ZM134.992 146.44C134.992 145.053 134.685 143.867 134.072 142.88C133.459 141.867 132.619 141.107 131.552 140.6C130.512 140.067 129.352 139.8 128.072 139.8C126.232 139.8 124.659 140.387 123.352 141.56C122.072 142.733 121.339 144.36 121.152 146.44H134.992ZM147.197 129.4V159H143.557V129.4H147.197ZM157.04 129.4V159H153.4V129.4H157.04ZM172.804 159.36C170.751 159.36 168.884 158.893 167.204 157.96C165.551 157.027 164.244 155.707 163.284 154C162.351 152.267 161.884 150.267 161.884 148C161.884 145.76 162.364 143.787 163.324 142.08C164.311 140.347 165.644 139.027 167.324 138.12C169.004 137.187 170.884 136.72 172.964 136.72C175.044 136.72 176.924 137.187 178.604 138.12C180.284 139.027 181.604 140.333 182.564 142.04C183.551 143.747 184.044 145.733 184.044 148C184.044 150.267 183.537 152.267 182.524 154C181.537 155.707 180.191 157.027 178.484 157.96C176.777 158.893 174.884 159.36 172.804 159.36ZM172.804 156.16C174.111 156.16 175.337 155.853 176.484 155.24C177.631 154.627 178.551 153.707 179.244 152.48C179.964 151.253 180.324 149.76 180.324 148C180.324 146.24 179.977 144.747 179.284 143.52C178.591 142.293 177.684 141.387 176.564 140.8C175.444 140.187 174.231 139.88 172.924 139.88C171.591 139.88 170.364 140.187 169.244 140.8C168.151 141.387 167.271 142.293 166.604 143.52C165.937 144.747 165.604 146.24 165.604 148C165.604 149.787 165.924 151.293 166.564 152.52C167.231 153.747 168.111 154.667 169.204 155.28C170.297 155.867 171.497 156.16 172.804 156.16Z" fill="#F5F5F5"/>
<path d="M73 36.5C73 29.0439 70.7166 21.7667 66.4568 15.6473C62.1971 9.52779 56.1655 4.85966 49.1733 2.27081C42.1811 -0.318038 34.5638 -0.703414 27.346 1.16652C20.1282 3.03646 13.6563 7.07201 8.80069 12.7303C3.94512 18.3886 0.938881 25.3982 0.186371 32.8162C-0.566139 40.2342 0.97118 47.7047 4.59153 54.2229C8.21188 60.741 13.7416 65.994 20.4368 69.2753C27.132 72.5567 34.6715 73.7089 42.0412 72.5769L41.628 69.8866C34.8079 70.9341 27.8306 69.8678 21.6347 66.8312C15.4388 63.7946 10.3214 58.9332 6.97105 52.9012C3.62069 46.8691 2.19801 39.9557 2.8944 33.0909C3.5908 26.2261 6.37285 19.7392 10.8663 14.5029C15.3598 9.26655 21.3491 5.53195 28.0287 3.80146C34.7082 2.07097 41.7575 2.42761 48.2282 4.8234C54.699 7.21919 60.2808 11.5392 64.2229 17.2023C68.1649 22.8654 70.2781 29.6 70.2781 36.5H73Z" fill="#F5F5F5"/>
<path d="M61.8241 32.3531C60.889 27.2681 58.4191 22.5915 54.7466 18.9522C51.074 15.313 46.375 12.8858 41.2817 11.9971C36.1884 11.1084 30.9451 11.8009 26.2571 13.9813C21.5691 16.1618 17.6614 19.7257 15.0595 24.1936C12.4576 28.6614 11.2864 33.819 11.7035 38.9724C12.1206 44.1258 14.1059 49.0279 17.3924 53.0192C20.6789 57.0105 25.109 59.8996 30.0866 61.2978C35.0642 62.696 40.3506 62.5362 45.2347 60.84L44.6155 59.057C40.0956 60.6267 35.2034 60.7745 30.597 59.4806C25.9906 58.1867 21.8909 55.5131 18.8495 51.8194C15.8081 48.1257 13.9708 43.5892 13.5848 38.8201C13.1989 34.051 14.2827 29.2781 16.6905 25.1434C19.0984 21.0087 22.7147 17.7106 27.0531 15.6927C31.3915 13.6749 36.2438 13.034 40.9573 13.8565C45.6708 14.6789 50.0193 16.9251 53.418 20.2929C56.8167 23.6608 59.1024 27.9887 59.9678 32.6945L61.8241 32.3531Z" fill="#F0EFEC"/>
<circle cx="36.5" cy="36.5" r="13.5" fill="#F0EFEC"/>
<circle cx="36.5" cy="36.5" r="7.5" fill="#3F3E3E"/>
<path d="M67.485 45.47L64.575 56H63.84L60.96 46.52L58.035 56H57.33L54.465 45.47H55.185L57.705 55.055L60.6 45.47H61.35L64.215 55.115L66.75 45.47H67.485ZM76.4957 51.38C76.4957 51.74 76.4857 52.01 76.4657 52.19H69.4307C69.4507 52.92 69.6107 53.535 69.9107 54.035C70.2107 54.535 70.6057 54.91 71.0957 55.16C71.5857 55.41 72.1207 55.535 72.7007 55.535C73.5007 55.535 74.1707 55.34 74.7107 54.95C75.2507 54.55 75.5907 54.01 75.7307 53.33H76.4357C76.2757 54.16 75.8657 54.835 75.2057 55.355C74.5457 55.865 73.7107 56.12 72.7007 56.12C71.9407 56.12 71.2607 55.95 70.6607 55.61C70.0607 55.27 69.5907 54.785 69.2507 54.155C68.9107 53.515 68.7407 52.77 68.7407 51.92C68.7407 51.07 68.9057 50.33 69.2357 49.7C69.5757 49.07 70.0457 48.59 70.6457 48.26C71.2457 47.92 71.9307 47.75 72.7007 47.75C73.4807 47.75 74.1557 47.92 74.7257 48.26C75.3057 48.59 75.7457 49.035 76.0457 49.595C76.3457 50.145 76.4957 50.74 76.4957 51.38ZM75.8207 51.635C75.8507 50.915 75.7207 50.305 75.4307 49.805C75.1507 49.305 74.7657 48.935 74.2757 48.695C73.7857 48.445 73.2557 48.32 72.6857 48.32C72.1157 48.32 71.5857 48.445 71.0957 48.695C70.6157 48.935 70.2207 49.305 69.9107 49.805C69.6107 50.305 69.4507 50.915 69.4307 51.635H75.8207ZM79.2107 50C79.4607 49.34 79.8857 48.8 80.4857 48.38C81.0857 47.96 81.8107 47.75 82.6607 47.75C83.4207 47.75 84.0957 47.92 84.6857 48.26C85.2857 48.6 85.7507 49.085 86.0807 49.715C86.4207 50.345 86.5907 51.08 86.5907 51.92C86.5907 52.76 86.4207 53.5 86.0807 54.14C85.7507 54.77 85.2857 55.26 84.6857 55.61C84.0957 55.95 83.4207 56.12 82.6607 56.12C81.8107 56.12 81.0807 55.91 80.4707 55.49C79.8707 55.07 79.4507 54.53 79.2107 53.87V56H78.5357V44.9H79.2107V50ZM85.9007 51.92C85.9007 51.18 85.7607 50.54 85.4807 50C85.2007 49.46 84.8057 49.05 84.2957 48.77C83.7957 48.48 83.2157 48.335 82.5557 48.335C81.9257 48.335 81.3557 48.485 80.8457 48.785C80.3357 49.075 79.9357 49.495 79.6457 50.045C79.3557 50.585 79.2107 51.21 79.2107 51.92C79.2107 52.64 79.3557 53.275 79.6457 53.825C79.9357 54.365 80.3357 54.785 80.8457 55.085C81.3557 55.375 81.9257 55.52 82.5557 55.52C83.2157 55.52 83.7957 55.375 84.2957 55.085C84.8057 54.795 85.2007 54.38 85.4807 53.84C85.7607 53.3 85.9007 52.66 85.9007 51.92ZM92.4418 51.92C92.4418 51.08 92.6068 50.345 92.9368 49.715C93.2768 49.085 93.7418 48.6 94.3318 48.26C94.9318 47.92 95.6118 47.75 96.3718 47.75C97.2018 47.75 97.9218 47.96 98.5318 48.38C99.1418 48.79 99.5718 49.325 99.8218 49.985V44.9H100.497V56H99.8218V53.84C99.5818 54.51 99.1618 55.06 98.5618 55.49C97.9618 55.91 97.2318 56.12 96.3718 56.12C95.6118 56.12 94.9318 55.95 94.3318 55.61C93.7418 55.26 93.2768 54.77 92.9368 54.14C92.6068 53.5 92.4418 52.76 92.4418 51.92ZM99.8218 51.92C99.8218 51.21 99.6718 50.585 99.3718 50.045C99.0818 49.495 98.6818 49.075 98.1718 48.785C97.6618 48.485 97.0918 48.335 96.4618 48.335C95.8018 48.335 95.2218 48.48 94.7218 48.77C94.2218 49.05 93.8318 49.46 93.5518 50C93.2718 50.54 93.1318 51.18 93.1318 51.92C93.1318 52.66 93.2718 53.3 93.5518 53.84C93.8318 54.38 94.2218 54.795 94.7218 55.085C95.2318 55.375 95.8118 55.52 96.4618 55.52C97.0918 55.52 97.6618 55.375 98.1718 55.085C98.6918 54.785 99.0968 54.365 99.3868 53.825C99.6768 53.275 99.8218 52.64 99.8218 51.92ZM110.29 51.38C110.29 51.74 110.28 52.01 110.26 52.19H103.225C103.245 52.92 103.405 53.535 103.705 54.035C104.005 54.535 104.4 54.91 104.89 55.16C105.38 55.41 105.915 55.535 106.495 55.535C107.295 55.535 107.965 55.34 108.505 54.95C109.045 54.55 109.385 54.01 109.525 53.33H110.23C110.07 54.16 109.66 54.835 109 55.355C108.34 55.865 107.505 56.12 106.495 56.12C105.735 56.12 105.055 55.95 104.455 55.61C103.855 55.27 103.385 54.785 103.045 54.155C102.705 53.515 102.535 52.77 102.535 51.92C102.535 51.07 102.7 50.33 103.03 49.7C103.37 49.07 103.84 48.59 104.44 48.26C105.04 47.92 105.725 47.75 106.495 47.75C107.275 47.75 107.95 47.92 108.52 48.26C109.1 48.59 109.54 49.035 109.84 49.595C110.14 50.145 110.29 50.74 110.29 51.38ZM109.615 51.635C109.645 50.915 109.515 50.305 109.225 49.805C108.945 49.305 108.56 48.935 108.07 48.695C107.58 48.445 107.05 48.32 106.48 48.32C105.91 48.32 105.38 48.445 104.89 48.695C104.41 48.935 104.015 49.305 103.705 49.805C103.405 50.305 103.245 50.915 103.225 51.635H109.615ZM115.045 56.12C114.135 56.12 113.39 55.92 112.81 55.52C112.24 55.12 111.92 54.55 111.85 53.81H112.54C112.59 54.34 112.83 54.76 113.26 55.07C113.7 55.38 114.295 55.535 115.045 55.535C115.665 55.535 116.155 55.38 116.515 55.07C116.885 54.75 117.07 54.36 117.07 53.9C117.07 53.58 116.97 53.32 116.77 53.12C116.58 52.91 116.34 52.75 116.05 52.64C115.76 52.53 115.365 52.41 114.865 52.28C114.265 52.12 113.78 51.965 113.41 51.815C113.04 51.655 112.725 51.42 112.465 51.11C112.205 50.8 112.075 50.385 112.075 49.865C112.075 49.485 112.19 49.135 112.42 48.815C112.65 48.485 112.97 48.225 113.38 48.035C113.79 47.845 114.255 47.75 114.775 47.75C115.625 47.75 116.31 47.965 116.83 48.395C117.36 48.815 117.645 49.4 117.685 50.15H117.01C116.98 49.61 116.77 49.17 116.38 48.83C115.99 48.49 115.45 48.32 114.76 48.32C114.18 48.32 113.7 48.47 113.32 48.77C112.94 49.07 112.75 49.435 112.75 49.865C112.75 50.245 112.855 50.555 113.065 50.795C113.285 51.025 113.55 51.205 113.86 51.335C114.18 51.455 114.6 51.585 115.12 51.725C115.69 51.875 116.145 52.025 116.485 52.175C116.835 52.315 117.13 52.525 117.37 52.805C117.61 53.075 117.73 53.44 117.73 53.9C117.73 54.32 117.615 54.7 117.385 55.04C117.155 55.38 116.835 55.645 116.425 55.835C116.015 56.025 115.555 56.12 115.045 56.12ZM120.131 46.04C119.971 46.04 119.836 45.99 119.726 45.89C119.616 45.78 119.561 45.635 119.561 45.455C119.561 45.285 119.616 45.145 119.726 45.035C119.836 44.925 119.971 44.87 120.131 44.87C120.291 44.87 120.426 44.925 120.536 45.035C120.646 45.145 120.701 45.285 120.701 45.455C120.701 45.635 120.646 45.78 120.536 45.89C120.426 45.99 120.291 46.04 120.131 46.04ZM120.461 47.855V56H119.786V47.855H120.461ZM126.445 47.75C127.305 47.75 128.035 47.96 128.635 48.38C129.235 48.79 129.655 49.32 129.895 49.97V47.855H130.57V56.255C130.57 57.005 130.405 57.66 130.075 58.22C129.745 58.79 129.3 59.225 128.74 59.525C128.18 59.835 127.555 59.99 126.865 59.99C125.845 59.99 125 59.745 124.33 59.255C123.66 58.765 123.22 58.105 123.01 57.275H123.685C123.885 57.925 124.26 58.44 124.81 58.82C125.36 59.21 126.045 59.405 126.865 59.405C127.435 59.405 127.95 59.275 128.41 59.015C128.87 58.765 129.23 58.4 129.49 57.92C129.76 57.45 129.895 56.895 129.895 56.255V53.87C129.655 54.52 129.23 55.06 128.62 55.49C128.02 55.91 127.295 56.12 126.445 56.12C125.685 56.12 125.005 55.95 124.405 55.61C123.815 55.26 123.35 54.77 123.01 54.14C122.68 53.5 122.515 52.76 122.515 51.92C122.515 51.08 122.68 50.345 123.01 49.715C123.35 49.085 123.815 48.6 124.405 48.26C125.005 47.92 125.685 47.75 126.445 47.75ZM129.895 51.92C129.895 51.21 129.745 50.585 129.445 50.045C129.155 49.495 128.755 49.075 128.245 48.785C127.735 48.485 127.165 48.335 126.535 48.335C125.875 48.335 125.295 48.48 124.795 48.77C124.295 49.05 123.905 49.46 123.625 50C123.345 50.54 123.205 51.18 123.205 51.92C123.205 52.66 123.345 53.3 123.625 53.84C123.905 54.38 124.295 54.795 124.795 55.085C125.305 55.375 125.885 55.52 126.535 55.52C127.165 55.52 127.735 55.375 128.245 55.085C128.765 54.785 129.17 54.365 129.46 53.825C129.75 53.275 129.895 52.64 129.895 51.92ZM136.703 47.69C137.673 47.69 138.463 47.99 139.073 48.59C139.683 49.18 139.988 50.06 139.988 51.23V56H139.328V51.275C139.328 50.305 139.083 49.565 138.593 49.055C138.103 48.535 137.438 48.275 136.598 48.275C135.718 48.275 135.013 48.555 134.483 49.115C133.963 49.675 133.703 50.505 133.703 51.605V56H133.028V47.855H133.703V49.58C133.933 48.97 134.313 48.505 134.843 48.185C135.383 47.855 136.003 47.69 136.703 47.69ZM154.482 52.355C154.122 52.985 153.777 53.52 153.447 53.96L155.427 56H154.572L153.057 54.455C152.547 55.045 152.002 55.48 151.422 55.76C150.852 56.03 150.202 56.165 149.472 56.165C148.802 56.165 148.202 56.035 147.672 55.775C147.142 55.505 146.727 55.135 146.427 54.665C146.137 54.185 145.992 53.635 145.992 53.015C145.992 52.265 146.202 51.62 146.622 51.08C147.052 50.53 147.672 50.1 148.482 49.79C148.092 49.38 147.807 49 147.627 48.65C147.457 48.29 147.372 47.91 147.372 47.51C147.372 46.87 147.597 46.35 148.047 45.95C148.507 45.55 149.107 45.35 149.847 45.35C150.287 45.35 150.692 45.44 151.062 45.62C151.432 45.8 151.722 46.055 151.932 46.385C152.142 46.715 152.247 47.1 152.247 47.54H151.572C151.572 47.04 151.402 46.645 151.062 46.355C150.722 46.065 150.312 45.92 149.832 45.92C149.302 45.92 148.872 46.07 148.542 46.37C148.212 46.66 148.047 47.04 148.047 47.51C148.047 47.86 148.137 48.195 148.317 48.515C148.497 48.825 148.782 49.18 149.172 49.58L152.997 53.51C153.277 53.11 153.592 52.62 153.942 52.04L154.782 50.585H155.502L154.482 52.355ZM149.472 55.565C150.112 55.565 150.677 55.44 151.167 55.19C151.667 54.94 152.147 54.54 152.607 53.99L148.917 50.24L148.872 50.255C147.402 50.795 146.667 51.71 146.667 53C146.667 53.49 146.787 53.93 147.027 54.32C147.267 54.71 147.597 55.015 148.017 55.235C148.447 55.455 148.932 55.565 149.472 55.565ZM54.81 66.92C54.81 66.08 54.975 65.345 55.305 64.715C55.645 64.085 56.11 63.6 56.7 63.26C57.3 62.92 57.98 62.75 58.74 62.75C59.57 62.75 60.29 62.96 60.9 63.38C61.51 63.79 61.94 64.325 62.19 64.985V59.9H62.865V71H62.19V68.84C61.95 69.51 61.53 70.06 60.93 70.49C60.33 70.91 59.6 71.12 58.74 71.12C57.98 71.12 57.3 70.95 56.7 70.61C56.11 70.26 55.645 69.77 55.305 69.14C54.975 68.5 54.81 67.76 54.81 66.92ZM62.19 66.92C62.19 66.21 62.04 65.585 61.74 65.045C61.45 64.495 61.05 64.075 60.54 63.785C60.03 63.485 59.46 63.335 58.83 63.335C58.17 63.335 57.59 63.48 57.09 63.77C56.59 64.05 56.2 64.46 55.92 65C55.64 65.54 55.5 66.18 55.5 66.92C55.5 67.66 55.64 68.3 55.92 68.84C56.2 69.38 56.59 69.795 57.09 70.085C57.6 70.375 58.18 70.52 58.83 70.52C59.46 70.52 60.03 70.375 60.54 70.085C61.06 69.785 61.465 69.365 61.755 68.825C62.045 68.275 62.19 67.64 62.19 66.92ZM72.6578 66.38C72.6578 66.74 72.6478 67.01 72.6278 67.19H65.5928C65.6128 67.92 65.7728 68.535 66.0728 69.035C66.3728 69.535 66.7678 69.91 67.2578 70.16C67.7478 70.41 68.2828 70.535 68.8628 70.535C69.6628 70.535 70.3328 70.34 70.8728 69.95C71.4128 69.55 71.7528 69.01 71.8928 68.33H72.5978C72.4378 69.16 72.0278 69.835 71.3678 70.355C70.7078 70.865 69.8728 71.12 68.8628 71.12C68.1028 71.12 67.4228 70.95 66.8228 70.61C66.2228 70.27 65.7528 69.785 65.4128 69.155C65.0728 68.515 64.9028 67.77 64.9028 66.92C64.9028 66.07 65.0678 65.33 65.3978 64.7C65.7378 64.07 66.2078 63.59 66.8078 63.26C67.4078 62.92 68.0928 62.75 68.8628 62.75C69.6428 62.75 70.3178 62.92 70.8878 63.26C71.4678 63.59 71.9078 64.035 72.2078 64.595C72.5078 65.145 72.6578 65.74 72.6578 66.38ZM71.9828 66.635C72.0128 65.915 71.8828 65.305 71.5928 64.805C71.3128 64.305 70.9278 63.935 70.4378 63.695C69.9478 63.445 69.4178 63.32 68.8478 63.32C68.2778 63.32 67.7478 63.445 67.2578 63.695C66.7778 63.935 66.3828 64.305 66.0728 64.805C65.7728 65.305 65.6128 65.915 65.5928 66.635H71.9828ZM77.4578 70.265L80.4578 62.855H81.1778L77.8028 71H77.0978L73.7228 62.855H74.4578L77.4578 70.265ZM90.0015 66.38C90.0015 66.74 89.9915 67.01 89.9715 67.19H82.9365C82.9565 67.92 83.1165 68.535 83.4165 69.035C83.7165 69.535 84.1115 69.91 84.6015 70.16C85.0915 70.41 85.6265 70.535 86.2065 70.535C87.0065 70.535 87.6765 70.34 88.2165 69.95C88.7565 69.55 89.0965 69.01 89.2365 68.33H89.9415C89.7815 69.16 89.3715 69.835 88.7115 70.355C88.0515 70.865 87.2165 71.12 86.2065 71.12C85.4465 71.12 84.7665 70.95 84.1665 70.61C83.5665 70.27 83.0965 69.785 82.7565 69.155C82.4165 68.515 82.2465 67.77 82.2465 66.92C82.2465 66.07 82.4115 65.33 82.7415 64.7C83.0815 64.07 83.5515 63.59 84.1515 63.26C84.7515 62.92 85.4365 62.75 86.2065 62.75C86.9865 62.75 87.6615 62.92 88.2315 63.26C88.8115 63.59 89.2515 64.035 89.5515 64.595C89.8515 65.145 90.0015 65.74 90.0015 66.38ZM89.3265 66.635C89.3565 65.915 89.2265 65.305 88.9365 64.805C88.6565 64.305 88.2715 63.935 87.7815 63.695C87.2915 63.445 86.7615 63.32 86.1915 63.32C85.6215 63.32 85.0915 63.445 84.6015 63.695C84.1215 63.935 83.7265 64.305 83.4165 64.805C83.1165 65.305 82.9565 65.915 82.9365 66.635H89.3265ZM92.7165 59.9V71H92.0415V59.9H92.7165ZM98.7759 71.12C98.0159 71.12 97.3309 70.95 96.7209 70.61C96.1109 70.27 95.6309 69.785 95.2809 69.155C94.9409 68.515 94.7709 67.77 94.7709 66.92C94.7709 66.08 94.9459 65.345 95.2959 64.715C95.6459 64.075 96.1259 63.59 96.7359 63.26C97.3559 62.92 98.0459 62.75 98.8059 62.75C99.5659 62.75 100.251 62.92 100.861 63.26C101.471 63.59 101.946 64.07 102.286 64.7C102.636 65.33 102.811 66.07 102.811 66.92C102.811 67.77 102.636 68.515 102.286 69.155C101.936 69.785 101.451 70.27 100.831 70.61C100.221 70.95 99.5359 71.12 98.7759 71.12ZM98.7759 70.52C99.3659 70.52 99.9159 70.39 100.426 70.13C100.946 69.86 101.361 69.455 101.671 68.915C101.981 68.375 102.136 67.71 102.136 66.92C102.136 66.14 101.981 65.48 101.671 64.94C101.361 64.4 100.951 64 100.441 63.74C99.9309 63.47 99.3809 63.335 98.7909 63.335C98.2009 63.335 97.6509 63.47 97.1409 63.74C96.6409 64 96.2359 64.4 95.9259 64.94C95.6159 65.48 95.4609 66.14 95.4609 66.92C95.4609 67.71 95.6109 68.375 95.9109 68.915C96.2209 69.455 96.6259 69.86 97.1259 70.13C97.6359 70.39 98.1859 70.52 98.7759 70.52ZM105.534 65C105.764 64.34 106.179 63.8 106.779 63.38C107.389 62.96 108.124 62.75 108.984 62.75C109.744 62.75 110.419 62.92 111.009 63.26C111.609 63.6 112.074 64.085 112.404 64.715C112.744 65.345 112.914 66.08 112.914 66.92C112.914 67.76 112.744 68.5 112.404 69.14C112.074 69.77 111.609 70.26 111.009 70.61C110.419 70.95 109.744 71.12 108.984 71.12C108.134 71.12 107.404 70.91 106.794 70.49C106.194 70.06 105.774 69.52 105.534 68.87V74.84H104.859V62.855H105.534V65ZM112.224 66.92C112.224 66.18 112.084 65.54 111.804 65C111.524 64.46 111.129 64.05 110.619 63.77C110.119 63.48 109.539 63.335 108.879 63.335C108.249 63.335 107.679 63.485 107.169 63.785C106.659 64.075 106.259 64.495 105.969 65.045C105.679 65.585 105.534 66.21 105.534 66.92C105.534 67.64 105.679 68.275 105.969 68.825C106.259 69.365 106.659 69.785 107.169 70.085C107.679 70.375 108.249 70.52 108.879 70.52C109.539 70.52 110.119 70.375 110.619 70.085C111.129 69.795 111.524 69.38 111.804 68.84C112.084 68.3 112.224 67.66 112.224 66.92ZM124.582 62.69C125.512 62.69 126.272 62.99 126.862 63.59C127.452 64.18 127.747 65.06 127.747 66.23V71H127.087V66.275C127.087 65.305 126.852 64.565 126.382 64.055C125.922 63.535 125.287 63.275 124.477 63.275C123.637 63.275 122.962 63.565 122.452 64.145C121.942 64.725 121.687 65.565 121.687 66.665V71H121.027V66.275C121.027 65.305 120.792 64.565 120.322 64.055C119.862 63.535 119.227 63.275 118.417 63.275C117.577 63.275 116.902 63.565 116.392 64.145C115.882 64.725 115.627 65.565 115.627 66.665V71H114.952V62.855H115.627V64.625C115.857 63.985 116.227 63.505 116.737 63.185C117.257 62.855 117.852 62.69 118.522 62.69C119.262 62.69 119.897 62.885 120.427 63.275C120.967 63.655 121.337 64.22 121.537 64.97C121.727 64.22 122.097 63.655 122.647 63.275C123.197 62.885 123.842 62.69 124.582 62.69ZM137.477 66.38C137.477 66.74 137.467 67.01 137.447 67.19H130.412C130.432 67.92 130.592 68.535 130.892 69.035C131.192 69.535 131.587 69.91 132.077 70.16C132.567 70.41 133.102 70.535 133.682 70.535C134.482 70.535 135.152 70.34 135.692 69.95C136.232 69.55 136.572 69.01 136.712 68.33H137.417C137.257 69.16 136.847 69.835 136.187 70.355C135.527 70.865 134.692 71.12 133.682 71.12C132.922 71.12 132.242 70.95 131.642 70.61C131.042 70.27 130.572 69.785 130.232 69.155C129.892 68.515 129.722 67.77 129.722 66.92C129.722 66.07 129.887 65.33 130.217 64.7C130.557 64.07 131.027 63.59 131.627 63.26C132.227 62.92 132.912 62.75 133.682 62.75C134.462 62.75 135.137 62.92 135.707 63.26C136.287 63.59 136.727 64.035 137.027 64.595C137.327 65.145 137.477 65.74 137.477 66.38ZM136.802 66.635C136.832 65.915 136.702 65.305 136.412 64.805C136.132 64.305 135.747 63.935 135.257 63.695C134.767 63.445 134.237 63.32 133.667 63.32C133.097 63.32 132.567 63.445 132.077 63.695C131.597 63.935 131.202 64.305 130.892 64.805C130.592 65.305 130.432 65.915 130.412 66.635H136.802ZM143.192 62.69C144.162 62.69 144.952 62.99 145.562 63.59C146.172 64.18 146.477 65.06 146.477 66.23V71H145.817V66.275C145.817 65.305 145.572 64.565 145.082 64.055C144.592 63.535 143.927 63.275 143.087 63.275C142.207 63.275 141.502 63.555 140.972 64.115C140.452 64.675 140.192 65.505 140.192 66.605V71H139.517V62.855H140.192V64.58C140.422 63.97 140.802 63.505 141.332 63.185C141.872 62.855 142.492 62.69 143.192 62.69ZM149.868 63.44V68.825C149.868 69.425 149.978 69.84 150.198 70.07C150.418 70.29 150.808 70.4 151.368 70.4H152.283V71H151.263C150.553 71 150.028 70.835 149.688 70.505C149.358 70.165 149.193 69.605 149.193 68.825V63.44H147.963V62.855H149.193V60.785H149.868V62.855H152.283V63.44H149.868Z" fill="#F5F5F5"/>
</svg>
